<?xml version="1.0" encoding="UTF-8" standalone="no"?>
<svg
   xmlns:dc="http://purl.org/dc/elements/1.1/"
   xmlns:cc="http://creativecommons.org/ns#"
   xmlns:rdf="http://www.w3.org/1999/02/22-rdf-syntax-ns#"
   xmlns:svg="http://www.w3.org/2000/svg"
   xmlns="http://www.w3.org/2000/svg"
   xmlns:sodipodi="http://sodipodi.sourceforge.net/DTD/sodipodi-0.dtd"
   xmlns:inkscape="http://www.inkscape.org/namespaces/inkscape"
   height="40"
   viewBox="0 -960 960 960"
   width="40"
   version="1.1"
   id="svg1584"
   sodipodi:docname="wallet.svg"
   inkscape:version="1.0.2 (e86c870879, 2021-01-15)">
  <metadata
     id="metadata1590">
    <rdf:RDF>
      <cc:Work
         rdf:about="">
        <dc:format>image/svg+xml</dc:format>
        <dc:type
           rdf:resource="http://purl.org/dc/dcmitype/StillImage" />
      </cc:Work>
    </rdf:RDF>
  </metadata>
  <defs
     id="defs1588" />
  <sodipodi:namedview
     pagecolor="#ffffff"
     bordercolor="#666666"
     borderopacity="1"
     objecttolerance="10"
     gridtolerance="10"
     guidetolerance="10"
     inkscape:pageopacity="0"
     inkscape:pageshadow="2"
     inkscape:window-width="1593"
     inkscape:window-height="928"
     id="namedview1586"
     showgrid="false"
     inkscape:zoom="7.685939"
     inkscape:cx="66.720249"
     inkscape:cy="23.358245"
     inkscape:window-x="0"
     inkscape:window-y="0"
     inkscape:window-maximized="0"
     inkscape:current-layer="svg1584"
     inkscape:document-rotation="0" />
  <rect
     style="fill:#8dc351;fill-opacity:1;stroke:none;stroke-width:25.3542;stroke-miterlimit:4;stroke-dasharray:none;stroke-dashoffset:7.35"
     id="rect2226"
     width="252.29221"
     height="314.00003"
     x="631.57098"
     y="-644.33264" />
  <rect
     style="fill:#8dc351;fill-opacity:1;stroke-width:45.9435;stroke-linejoin:round;stroke-dashoffset:7.35"
     id="rect3960-5"
     width="681.39978"
     height="694.22723"
     x="146.43829"
     y="-834.53979" />
  <g
     transform="matrix(0.0285269,0,0,0.0285269,118.34263,-694.13987)"
     fill="#8dc351"
     id="g52-2-9">
    <path
       d="m 7525,15989 c -349,-23 -745,-74 -1074,-139 -1411,-279 -2741,-944 -3806,-1903 -103,-94 -479,-466 -575,-572 -245,-266 -540,-648 -754,-974 -84,-128 -216,-339 -216,-346 0,-2 -17,-32 -38,-66 -48,-80 -130,-233 -220,-414 C 359,10611 82,9566 10,8445 -3,8240 -3,7750 10,7545 113,5935 655,4458 1610,3185 c 239,-319 428,-535 744,-850 286,-286 436,-420 706,-632 C 4666,442 6732,-162 8765,35 c 1734,169 3354,891 4645,2071 632,577 1156,1241 1589,2014 64,113 231,450 301,605 345,767 574,1625 659,2470 32,311 41,496 41,810 0,808 -118,1588 -356,2359 -526,1697 -1613,3186 -3064,4197 -1216,848 -2616,1332 -4135,1429 -181,11 -740,11 -920,-1 z"
       id="path50-9-2" />
  </g>
  <g
     transform="matrix(0.04155849,0,0,0.04155849,-3.8873704,-887.82246)"
     fill="#ffffff"
     id="g56-1-2">
    <path
       d="m 7751,13046 c -6,-17 -62,-222 -127,-456 -195,-713 -262,-951 -266,-956 -3,-2 -398,103 -879,234 -481,131 -875,238 -877,237 -3,-3 -112,-1041 -112,-1071 0,-17 8,-23 33,-28 75,-14 558,-147 627,-172 101,-38 181,-113 204,-193 28,-95 21,-155 -43,-390 -33,-119 -139,-504 -236,-856 -97,-352 -239,-867 -315,-1145 -76,-278 -193,-703 -260,-945 -67,-242 -142,-514 -166,-605 -25,-91 -57,-185 -72,-210 -44,-77 -110,-138 -190,-177 -67,-34 -84,-38 -171,-41 -134,-6 -233,16 -734,162 -81,23 -120,30 -122,22 -7,-20 -247,-901 -249,-910 0,-4 87,-33 194,-62 107,-30 499,-138 870,-241 371,-102 678,-189 682,-192 4,-3 -81,-323 -188,-711 -107,-388 -192,-710 -190,-715 2,-6 28,-17 57,-24 30,-8 222,-61 428,-117 206,-57 376,-103 377,-101 1,1 88,315 193,697 106,382 194,696 196,698 2,2 137,-35 302,-83 164,-48 318,-92 343,-100 35,-10 44,-17 42,-31 -2,-11 -87,-320 -188,-689 -101,-368 -184,-674 -184,-680 0,-9 858,-250 865,-243 2,2 91,322 198,711 107,389 196,710 199,712 2,3 42,-2 89,-10 416,-74 899,-94 1184,-51 672,104 1078,440 1283,1061 196,592 97,1085 -302,1499 l -73,76 h 118 c 828,0 1344,393 1564,1190 130,470 135,910 15,1273 -41,126 -137,313 -218,427 -145,205 -419,444 -699,612 -277,166 -754,378 -1083,483 -30,10 -58,20 -62,24 -4,3 71,290 166,636 96,347 185,671 198,721 l 25,91 -426,117 c -234,64 -431,116 -436,116 -6,0 -98,-318 -204,-707 -107,-390 -195,-709 -196,-710 -1,-2 -143,35 -316,81 -173,46 -329,87 -346,91 -18,3 -33,12 -33,18 0,11 16,68 259,952 71,259 128,471 126,473 -1,1 -196,56 -433,121 l -431,118 z m 442,-2762 c 928,-243 1429,-470 1733,-785 93,-98 132,-151 179,-252 54,-113 70,-186 69,-317 0,-211 -79,-419 -214,-563 -317,-339 -883,-384 -1824,-143 -226,58 -696,197 -696,207 0,4 117,433 260,953 143,520 260,948 260,951 0,10 22,5 233,-51 z M 7391,7495 c 657,-172 1015,-321 1295,-540 97,-76 161,-145 225,-243 60,-91 87,-161 107,-277 19,-113 7,-234 -39,-369 -102,-305 -310,-473 -660,-532 -82,-13 -140,-16 -298,-11 -227,6 -400,32 -681,103 -171,42 -609,170 -618,179 -4,4 126,484 431,1588 24,87 46,147 53,147 6,0 90,-20 185,-45 z"
       fill="#ffffff"
       id="path54-2-8" />
  </g>
  <path
     d="m 149.05403,-280.30942 v 120.02389 -657.28898 z m 28.014,154.38618 q -25.2701,0 -43.8232,-18.5532 -18.5519,-18.5531 -18.5519,-43.82318 v -601.26075 q 0,-25.2702 18.5519,-43.82327 18.5531,-18.55313 43.8232,-18.55313 h 601.13 q 25.27,0 43.8231,18.55313 18.5533,18.55307 18.5533,43.82327 v 152.0223 h -34.3623 v -152.0223 q 0,-12.25616 -7.8788,-20.13512 -7.8787,-7.87869 -20.135,-7.87869 h -601.13 q -12.256,0 -20.1351,7.87869 -7.8787,7.87876 -7.8787,20.13512 v 601.26075 q 0,12.25614 7.8787,20.13506 7.8788,7.87878 20.1351,7.87878 h 601.13 q 12.2561,0 20.135,-7.87878 7.8788,-7.87876 7.8788,-20.13506 v -151.75947 h 34.3623 v 151.75947 q 0,25.27008 -18.5533,43.82318 -18.5531,18.5532 -43.8231,18.5532 z m 383.2977,-188.74736 q -28.3736,0 -49.0425,-20.23978 -20.6676,-20.23969 -20.6676,-49.03329 v -209.40481 q 0,-28.96427 20.579,-49.27124 20.5799,-20.30682 48.7453,-20.30682 h 256.6639 q 29.4411,0 50.0826,20.23973 20.6404,20.23863 20.6404,49.03334 v 209.4047 q 0,28.96437 -20.5516,49.2713 -20.5516,20.30687 -49.7846,20.30687 z m 264.6247,-34.36226 q 11.381,0 19.6981,-7.87873 8.3174,-7.87876 8.3174,-20.13506 v -223.50333 q 0,-11.38093 -8.3174,-19.69799 -8.3167,-8.31581 -19.6981,-8.31581 h -271.9585 q -11.3809,0 -19.698,8.31581 -8.3175,8.31748 -8.3175,19.69799 v 223.50333 q 0,12.25603 8.3175,20.13506 8.3175,7.87873 19.698,7.87873 z m -158.737,-69.81717 q 29.2147,0 49.5467,-20.20332 20.3319,-20.20332 20.3319,-50.07242 0,-30.37895 -20.5061,-50.13168 -20.5061,-19.75265 -49.5068,-19.75265 -30.0944,0 -50.5584,19.68556 -20.464,19.68549 -20.464,50.06447 0,29.86913 20.4606,50.13952 20.4605,20.27052 50.6961,20.27052 z"
     id="path1628"
     style="stroke-width:1.13808" />
</svg>
