<?xml version="1.0" encoding="UTF-8" standalone="no"?>
<!DOCTYPE svg PUBLIC "-//W3C//DTD SVG 1.0//EN" "http://www.w3.org/TR/2001/PR-SVG-20010719/DTD/svg10.dtd">
<svg width="62cm" height="30cm" viewBox="-1 -1 1222 582" xmlns="http://www.w3.org/2000/svg" xmlns:xlink="http://www.w3.org/1999/xlink">
  <g id="Background">
    <g>
      <rect style="fill: #a3809a; fill-opacity: 0.607843; stroke-opacity: 1; stroke-width: 2; stroke: #000000" x="0" y="0" width="1220" height="580" rx="0" ry="0"/>
      <text font-size="12.8" style="fill: #000000; fill-opacity: 1; stroke: none;text-anchor:middle;font-family:sans-serif;font-style:normal;font-weight:normal" x="610" y="293.881">
        <tspan x="610" y="293.881"></tspan>
      </text>
    </g>
    <g>
      <rect style="fill: #ffffff; fill-opacity: 1; stroke-opacity: 1; stroke-width: 2; stroke: #000000" x="27.1352" y="24.7568" width="140" height="80" rx="0" ry="0"/>
      <text font-size="12.8" style="fill: #000000; fill-opacity: 1; stroke: none;text-anchor:middle;font-family:sans-serif;font-style:normal;font-weight:normal" x="97.1352" y="68.6381">
        <tspan x="97.1352" y="68.6381">Genesis TX</tspan>
      </text>
    </g>
    <g>
      <rect style="fill: #e6d7d7; fill-opacity: 1; stroke-opacity: 1; stroke-width: 2; stroke: #000000" x="914.284" y="160.217" width="140" height="80" rx="0" ry="0"/>
      <text font-size="12.8" style="fill: #000000; fill-opacity: 1; stroke: none;text-anchor:middle;font-family:sans-serif;font-style:normal;font-weight:normal" x="984.284" y="196.098">
        <tspan x="984.284" y="196.098">Battery </tspan>
        <tspan x="984.284" y="212.098">E3 Gantry Mint</tspan>
      </text>
    </g>
    <g>
      <rect style="fill: #e6d7d7; fill-opacity: 1; stroke-opacity: 1; stroke-width: 2; stroke: #000000" x="610.167" y="160.217" width="140" height="80" rx="0" ry="0"/>
      <text font-size="12.8" style="fill: #000000; fill-opacity: 1; stroke: none;text-anchor:middle;font-family:sans-serif;font-style:normal;font-weight:normal" x="680.167" y="196.098">
        <tspan x="680.167" y="196.098">Battery </tspan>
        <tspan x="680.167" y="212.098">E4 Gantry Mint</tspan>
      </text>
    </g>
    <g>
      <rect style="fill: #e6d7d7; fill-opacity: 1; stroke-opacity: 1; stroke-width: 2; stroke: #000000" x="316.752" y="160.217" width="140" height="80" rx="0" ry="0"/>
      <text font-size="12.8" style="fill: #000000; fill-opacity: 1; stroke: none;text-anchor:middle;font-family:sans-serif;font-style:normal;font-weight:normal" x="386.752" y="196.098">
        <tspan x="386.752" y="196.098">Battery</tspan>
        <tspan x="386.752" y="212.098">E5 Gantry Mint</tspan>
      </text>
    </g>
    <g>
      <rect style="fill: #e6d7d7; fill-opacity: 1; stroke-opacity: 1; stroke-width: 2; stroke: #000000" x="28.0946" y="160.217" width="140" height="80" rx="0" ry="0"/>
      <text font-size="12.8" style="fill: #000000; fill-opacity: 1; stroke: none;text-anchor:middle;font-family:sans-serif;font-style:normal;font-weight:normal" x="98.0946" y="196.098">
        <tspan x="98.0946" y="196.098">Battery </tspan>
        <tspan x="98.0946" y="212.098">E6 Gantry Mint</tspan>
      </text>
    </g>
    <g>
      <rect style="fill: #e6d7d7; fill-opacity: 1; stroke-opacity: 1; stroke-width: 2; stroke: #000000" x="1074.77" y="87.3518" width="120.95" height="54" rx="0" ry="0"/>
      <text font-size="12.8" style="fill: #000000; fill-opacity: 1; stroke: none;text-anchor:middle;font-family:sans-serif;font-style:normal;font-weight:normal" x="1135.24" y="110.233">
        <tspan x="1135.24" y="110.233">Battery Minting</tspan>
        <tspan x="1135.24" y="126.233">Baton Burn</tspan>
      </text>
    </g>
    <g>
      <line style="fill: none; stroke-opacity: 1; stroke-width: 2; stroke: #000000" x1="751.166" y1="200.217" x2="903.549" y2="200.217"/>
      <polygon style="fill: #000000; fill-opacity: 1; stroke-opacity: 1; stroke-width: 2; stroke: #000000" fill-rule="evenodd" points="911.049,200.217 901.049,205.217 903.549,200.217 901.049,195.217 "/>
    </g>
    <g>
      <line style="fill: none; stroke-opacity: 1; stroke-width: 2; stroke: #000000" x1="169.079" y1="200.217" x2="306.032" y2="200.217"/>
      <polygon style="fill: #000000; fill-opacity: 1; stroke-opacity: 1; stroke-width: 2; stroke: #000000" fill-rule="evenodd" points="313.532,200.217 303.532,205.217 306.032,200.217 303.532,195.217 "/>
    </g>
    <g>
      <line style="fill: none; stroke-opacity: 1; stroke-width: 2; stroke: #000000" x1="1055.28" y1="159.836" x2="1077.69" y2="147.088"/>
      <polygon style="fill: #000000; fill-opacity: 1; stroke-opacity: 1; stroke-width: 2; stroke: #000000" fill-rule="evenodd" points="1084.21,143.38 1077.99,152.67 1077.69,147.088 1073.04,143.978 "/>
    </g>
    <g>
      <line style="fill: none; stroke-opacity: 1; stroke-width: 2; stroke: #000000" x1="457.751" y1="200.217" x2="599.432" y2="200.217"/>
      <polygon style="fill: #000000; fill-opacity: 1; stroke-opacity: 1; stroke-width: 2; stroke: #000000" fill-rule="evenodd" points="606.932,200.217 596.932,205.217 599.432,200.217 596.932,195.217 "/>
    </g>
    <g>
      <line style="fill: none; stroke-opacity: 1; stroke-width: 2; stroke: #000000" x1="97.4247" y1="105.633" x2="97.7361" y2="149.605"/>
      <polygon style="fill: #000000; fill-opacity: 1; stroke-opacity: 1; stroke-width: 2; stroke: #000000" fill-rule="evenodd" points="97.7893,157.104 92.7186,147.14 97.7361,149.605 102.718,147.069 "/>
    </g>
    <g>
      <rect style="fill: #dcdcea; fill-opacity: 1; stroke-opacity: 1; stroke-width: 2; stroke: #000000" x="914.259" y="500.217" width="86" height="60" rx="0" ry="0"/>
      <text font-size="12.8" style="fill: #000000; fill-opacity: 1; stroke: none;text-anchor:middle;font-family:sans-serif;font-style:normal;font-weight:normal" x="957.259" y="526.098">
        <tspan x="957.259" y="526.098">Gantry E3</tspan>
        <tspan x="957.259" y="542.098">Baton</tspan>
      </text>
    </g>
    <g>
      <rect style="fill: #dcdcea; fill-opacity: 1; stroke-opacity: 1; stroke-width: 2; stroke: #000000" x="610.142" y="500.217" width="86" height="60" rx="0" ry="0"/>
      <text font-size="12.8" style="fill: #000000; fill-opacity: 1; stroke: none;text-anchor:middle;font-family:sans-serif;font-style:normal;font-weight:normal" x="653.142" y="526.098">
        <tspan x="653.142" y="526.098">Gantry E4</tspan>
        <tspan x="653.142" y="542.098">Baton</tspan>
      </text>
    </g>
    <g>
      <rect style="fill: #dcdcea; fill-opacity: 1; stroke-opacity: 1; stroke-width: 2; stroke: #000000" x="316.727" y="500.217" width="86" height="60" rx="0" ry="0"/>
      <text font-size="12.8" style="fill: #000000; fill-opacity: 1; stroke: none;text-anchor:middle;font-family:sans-serif;font-style:normal;font-weight:normal" x="359.727" y="526.098">
        <tspan x="359.727" y="526.098">Gantry E5</tspan>
        <tspan x="359.727" y="542.098">Baton</tspan>
      </text>
    </g>
    <g>
      <rect style="fill: #dcdcea; fill-opacity: 1; stroke-opacity: 1; stroke-width: 2; stroke: #000000" x="28.0696" y="400.217" width="86" height="60" rx="0" ry="0"/>
      <text font-size="12.8" style="fill: #000000; fill-opacity: 1; stroke: none;text-anchor:middle;font-family:sans-serif;font-style:normal;font-weight:normal" x="71.0696" y="426.098">
        <tspan x="71.0696" y="426.098">Gantry E6</tspan>
        <tspan x="71.0696" y="442.098">Baton</tspan>
      </text>
    </g>
    <g>
      <rect style="fill: #eaeaea; fill-opacity: 1; stroke-opacity: 1; stroke-width: 2; stroke: #000000" x="934.284" y="260.217" width="160" height="38" rx="0" ry="0"/>
      <text font-size="12.8" style="fill: #000000; fill-opacity: 1; stroke: none;text-anchor:middle;font-family:sans-serif;font-style:normal;font-weight:normal" x="1014.28" y="283.098">
        <tspan x="1014.28" y="283.098">Vault FBCH-0851000</tspan>
      </text>
    </g>
    <g>
      <rect style="fill: #eaeaea; fill-opacity: 1; stroke-opacity: 1; stroke-width: 2; stroke: #000000" x="934.284" y="320.217" width="160" height="38" rx="0" ry="0"/>
      <text font-size="12.8" style="fill: #000000; fill-opacity: 1; stroke: none;text-anchor:middle;font-family:sans-serif;font-style:normal;font-weight:normal" x="1014.28" y="343.098">
        <tspan x="1014.28" y="343.098">Vault FBCH-0852000</tspan>
      </text>
    </g>
    <g>
      <rect style="fill: #eaeaea; fill-opacity: 1; stroke-opacity: 1; stroke-width: 2; stroke: #000000" x="934.284" y="380.217" width="160" height="38" rx="0" ry="0"/>
      <text font-size="12.8" style="fill: #000000; fill-opacity: 1; stroke: none;text-anchor:middle;font-family:sans-serif;font-style:normal;font-weight:normal" x="1014.28" y="403.098">
        <tspan x="1014.28" y="403.098">Vault FBCH-0853000</tspan>
      </text>
    </g>
    <g>
      <rect style="fill: #eaeaea; fill-opacity: 1; stroke-opacity: 1; stroke-width: 2; stroke: #000000" x="934.284" y="440.217" width="160" height="38" rx="0" ry="0"/>
      <text font-size="12.8" style="fill: #000000; fill-opacity: 1; stroke: none;text-anchor:middle;font-family:sans-serif;font-style:normal;font-weight:normal" x="1014.28" y="463.098">
        <tspan x="1014.28" y="463.098">Vault FBCH-0854000</tspan>
      </text>
    </g>
    <g>
      <rect style="fill: #eaeaea; fill-opacity: 1; stroke-opacity: 1; stroke-width: 2; stroke: #000000" x="630.167" y="260.217" width="160" height="38" rx="0" ry="0"/>
      <text font-size="12.8" style="fill: #000000; fill-opacity: 1; stroke: none;text-anchor:middle;font-family:sans-serif;font-style:normal;font-weight:normal" x="710.167" y="283.098">
        <tspan x="710.167" y="283.098">Vault FBCH-0860000</tspan>
      </text>
    </g>
    <g>
      <rect style="fill: #eaeaea; fill-opacity: 1; stroke-opacity: 1; stroke-width: 2; stroke: #000000" x="630.167" y="320.217" width="160" height="38" rx="0" ry="0"/>
      <text font-size="12.8" style="fill: #000000; fill-opacity: 1; stroke: none;text-anchor:middle;font-family:sans-serif;font-style:normal;font-weight:normal" x="710.167" y="343.098">
        <tspan x="710.167" y="343.098">Vault FBCH-0870000</tspan>
      </text>
    </g>
    <g>
      <rect style="fill: #eaeaea; fill-opacity: 1; stroke-opacity: 1; stroke-width: 2; stroke: #000000" x="630.167" y="380.217" width="160" height="38" rx="0" ry="0"/>
      <text font-size="12.8" style="fill: #000000; fill-opacity: 1; stroke: none;text-anchor:middle;font-family:sans-serif;font-style:normal;font-weight:normal" x="710.167" y="403.098">
        <tspan x="710.167" y="403.098">Vault FBCH-0880000</tspan>
      </text>
    </g>
    <g>
      <rect style="fill: #eaeaea; fill-opacity: 1; stroke-opacity: 1; stroke-width: 2; stroke: #000000" x="630.167" y="440.217" width="160" height="38" rx="0" ry="0"/>
      <text font-size="12.8" style="fill: #000000; fill-opacity: 1; stroke: none;text-anchor:middle;font-family:sans-serif;font-style:normal;font-weight:normal" x="710.167" y="463.098">
        <tspan x="710.167" y="463.098">Vault FBCH-0890000</tspan>
      </text>
    </g>
    <g>
      <rect style="fill: #eaeaea; fill-opacity: 1; stroke-opacity: 1; stroke-width: 2; stroke: #000000" x="336.752" y="260.217" width="160" height="38" rx="0" ry="0"/>
      <text font-size="12.8" style="fill: #000000; fill-opacity: 1; stroke: none;text-anchor:middle;font-family:sans-serif;font-style:normal;font-weight:normal" x="416.752" y="283.098">
        <tspan x="416.752" y="283.098">Vault FBCH-0900 000</tspan>
      </text>
    </g>
    <g>
      <rect style="fill: #eaeaea; fill-opacity: 1; stroke-opacity: 1; stroke-width: 2; stroke: #000000" x="330.101" y="320.217" width="173.3" height="38" rx="0" ry="0"/>
      <text font-size="12.8" style="fill: #000000; fill-opacity: 1; stroke: none;text-anchor:middle;font-family:sans-serif;font-style:normal;font-weight:normal" x="416.751" y="343.098">
        <tspan x="416.751" y="343.098">Vault FBCH-1100000</tspan>
      </text>
    </g>
    <g>
      <rect style="fill: #eaeaea; fill-opacity: 1; stroke-opacity: 1; stroke-width: 2; stroke: #000000" x="331.452" y="380.217" width="170.6" height="38" rx="0" ry="0"/>
      <text font-size="12.8" style="fill: #000000; fill-opacity: 1; stroke: none;text-anchor:middle;font-family:sans-serif;font-style:normal;font-weight:normal" x="416.752" y="403.098">
        <tspan x="416.752" y="403.098">Vault FBCH-1200000</tspan>
      </text>
    </g>
    <g>
      <rect style="fill: #eaeaea; fill-opacity: 1; stroke-opacity: 1; stroke-width: 2; stroke: #000000" x="335.476" y="440.217" width="162.55" height="38" rx="0" ry="0"/>
      <text font-size="12.8" style="fill: #000000; fill-opacity: 1; stroke: none;text-anchor:middle;font-family:sans-serif;font-style:normal;font-weight:normal" x="416.751" y="463.098">
        <tspan x="416.751" y="463.098">Vault FBCH-1300000</tspan>
      </text>
    </g>
    <g>
      <line style="fill: none; stroke-opacity: 1; stroke-width: 2; stroke: #000000" x1="914.284" y1="240.217" x2="914.26" y2="490.48"/>
      <polygon style="fill: #000000; fill-opacity: 1; stroke-opacity: 1; stroke-width: 2; stroke: #000000" fill-rule="evenodd" points="914.259,497.98 909.26,487.98 914.26,490.48 919.26,487.981 "/>
    </g>
    <g>
      <rect style="fill: #eaeaea; fill-opacity: 1; stroke-opacity: 1; stroke-width: 2; stroke: #000000" x="46.8186" y="260.217" width="162.55" height="38" rx="0" ry="0"/>
      <text font-size="12.8" style="fill: #000000; fill-opacity: 1; stroke: none;text-anchor:middle;font-family:sans-serif;font-style:normal;font-weight:normal" x="128.094" y="283.098">
        <tspan x="128.094" y="283.098">Vault FBCH-1 000 000</tspan>
      </text>
    </g>
    <g>
      <rect style="fill: #eaeaea; fill-opacity: 1; stroke-opacity: 1; stroke-width: 2; stroke: #000000" x="46.8186" y="320.217" width="162.55" height="38" rx="0" ry="0"/>
      <text font-size="12.8" style="fill: #000000; fill-opacity: 1; stroke: none;text-anchor:middle;font-family:sans-serif;font-style:normal;font-weight:normal" x="128.094" y="343.098">
        <tspan x="128.094" y="343.098">Vault FBCH-2 000 000</tspan>
      </text>
    </g>
    <g>
      <line style="fill: none; stroke-opacity: 1; stroke-width: 2; stroke: #000000" x1="610.167" y1="240.217" x2="610.142" y2="490.48"/>
      <polygon style="fill: #000000; fill-opacity: 1; stroke-opacity: 1; stroke-width: 2; stroke: #000000" fill-rule="evenodd" points="610.142,497.98 605.143,487.98 610.142,490.48 615.143,487.981 "/>
    </g>
    <g>
      <line style="fill: none; stroke-opacity: 1; stroke-width: 2; stroke: #000000" x1="316.752" y1="240.217" x2="316.728" y2="490.48"/>
      <polygon style="fill: #000000; fill-opacity: 1; stroke-opacity: 1; stroke-width: 2; stroke: #000000" fill-rule="evenodd" points="316.727,497.98 311.728,487.98 316.728,490.48 321.728,487.981 "/>
    </g>
    <g>
      <line style="fill: none; stroke-opacity: 1; stroke-width: 2; stroke: #000000" x1="28.0946" y1="240.217" x2="28.0711" y2="390.48"/>
      <polygon style="fill: #000000; fill-opacity: 1; stroke-opacity: 1; stroke-width: 2; stroke: #000000" fill-rule="evenodd" points="28.0699,397.98 23.0715,387.98 28.0711,390.48 33.0715,387.981 "/>
    </g>
    <g>
      <line style="fill: none; stroke-opacity: 1; stroke-width: 2; stroke: #000000" x1="914.284" y1="280.217" x2="923.567" y2="280.124"/>
      <polygon style="fill: #000000; fill-opacity: 1; stroke-opacity: 1; stroke-width: 2; stroke: #000000" fill-rule="evenodd" points="931.066,280.049 921.117,285.148 923.567,280.124 921.017,275.149 "/>
    </g>
    <g>
      <line style="fill: none; stroke-opacity: 1; stroke-width: 2; stroke: #000000" x1="914.284" y1="340.217" x2="923.567" y2="340.124"/>
      <polygon style="fill: #000000; fill-opacity: 1; stroke-opacity: 1; stroke-width: 2; stroke: #000000" fill-rule="evenodd" points="931.066,340.049 921.117,345.148 923.567,340.124 921.017,335.149 "/>
    </g>
    <g>
      <line style="fill: none; stroke-opacity: 1; stroke-width: 2; stroke: #000000" x1="914.284" y1="400.217" x2="923.567" y2="400.124"/>
      <polygon style="fill: #000000; fill-opacity: 1; stroke-opacity: 1; stroke-width: 2; stroke: #000000" fill-rule="evenodd" points="931.066,400.049 921.117,405.148 923.567,400.124 921.017,395.149 "/>
    </g>
    <g>
      <line style="fill: none; stroke-opacity: 1; stroke-width: 2; stroke: #000000" x1="914.284" y1="460.217" x2="923.567" y2="460.124"/>
      <polygon style="fill: #000000; fill-opacity: 1; stroke-opacity: 1; stroke-width: 2; stroke: #000000" fill-rule="evenodd" points="931.066,460.049 921.117,465.148 923.567,460.124 921.017,455.149 "/>
    </g>
    <g>
      <line style="fill: none; stroke-opacity: 1; stroke-width: 2; stroke: #000000" x1="610.167" y1="460.217" x2="619.45" y2="460.124"/>
      <polygon style="fill: #000000; fill-opacity: 1; stroke-opacity: 1; stroke-width: 2; stroke: #000000" fill-rule="evenodd" points="626.949,460.049 617,465.148 619.45,460.124 616.9,455.149 "/>
    </g>
    <g>
      <line style="fill: none; stroke-opacity: 1; stroke-width: 2; stroke: #000000" x1="610.167" y1="400.217" x2="619.45" y2="400.124"/>
      <polygon style="fill: #000000; fill-opacity: 1; stroke-opacity: 1; stroke-width: 2; stroke: #000000" fill-rule="evenodd" points="626.949,400.049 617,405.148 619.45,400.124 616.9,395.149 "/>
    </g>
    <g>
      <line style="fill: none; stroke-opacity: 1; stroke-width: 2; stroke: #000000" x1="610.167" y1="340.217" x2="619.45" y2="340.124"/>
      <polygon style="fill: #000000; fill-opacity: 1; stroke-opacity: 1; stroke-width: 2; stroke: #000000" fill-rule="evenodd" points="626.949,340.049 617,345.148 619.45,340.124 616.9,335.149 "/>
    </g>
    <g>
      <line style="fill: none; stroke-opacity: 1; stroke-width: 2; stroke: #000000" x1="610.167" y1="280.217" x2="619.45" y2="280.124"/>
      <polygon style="fill: #000000; fill-opacity: 1; stroke-opacity: 1; stroke-width: 2; stroke: #000000" fill-rule="evenodd" points="626.949,280.049 617,285.148 619.45,280.124 616.9,275.149 "/>
    </g>
    <g>
      <line style="fill: none; stroke-opacity: 1; stroke-width: 2; stroke: #000000" x1="313.951" y1="278.108" x2="326.05" y2="278.238"/>
      <polygon style="fill: #000000; fill-opacity: 1; stroke-opacity: 1; stroke-width: 2; stroke: #000000" fill-rule="evenodd" points="333.55,278.319 323.497,283.211 326.05,278.238 323.605,273.212 "/>
    </g>
    <g>
      <line style="fill: none; stroke-opacity: 1; stroke-width: 2; stroke: #000000" x1="316.752" y1="340.217" x2="319.364" y2="340.19"/>
      <polygon style="fill: #000000; fill-opacity: 1; stroke-opacity: 1; stroke-width: 2; stroke: #000000" fill-rule="evenodd" points="326.863,340.115 316.914,345.215 319.364,340.19 316.814,335.216 "/>
    </g>
    <g>
      <line style="fill: none; stroke-opacity: 1; stroke-width: 2; stroke: #000000" x1="316.752" y1="400.217" x2="320.725" y2="400.177"/>
      <polygon style="fill: #000000; fill-opacity: 1; stroke-opacity: 1; stroke-width: 2; stroke: #000000" fill-rule="evenodd" points="328.225,400.102 318.275,405.202 320.725,400.177 318.175,395.202 "/>
    </g>
    <g>
      <line style="fill: none; stroke-opacity: 1; stroke-width: 2; stroke: #000000" x1="316.752" y1="460.217" x2="324.735" y2="460.137"/>
      <polygon style="fill: #000000; fill-opacity: 1; stroke-opacity: 1; stroke-width: 2; stroke: #000000" fill-rule="evenodd" points="332.235,460.062 322.285,465.161 324.735,460.137 322.185,455.162 "/>
    </g>
    <g>
      <line style="fill: none; stroke-opacity: 1; stroke-width: 2; stroke: #000000" x1="28.0946" y1="280.217" x2="36.0773" y2="280.137"/>
      <polygon style="fill: #000000; fill-opacity: 1; stroke-opacity: 1; stroke-width: 2; stroke: #000000" fill-rule="evenodd" points="43.577,280.062 33.6275,285.161 36.0773,280.137 33.5275,275.162 "/>
    </g>
    <g>
      <line style="fill: none; stroke-opacity: 1; stroke-width: 2; stroke: #000000" x1="28.0946" y1="340.217" x2="36.0773" y2="340.137"/>
      <polygon style="fill: #000000; fill-opacity: 1; stroke-opacity: 1; stroke-width: 2; stroke: #000000" fill-rule="evenodd" points="43.577,340.062 33.6275,345.161 36.0773,340.137 33.5275,335.162 "/>
    </g>
    <g>
      <rect style="fill: #ffffff; fill-opacity: 1; stroke-opacity: 1; stroke-width: 2; stroke: #000000" x="1114.26" y="260.217" width="71" height="54" rx="0" ry="0"/>
      <text font-size="12.8" style="fill: #000000; fill-opacity: 1; stroke: none;text-anchor:middle;font-family:sans-serif;font-style:normal;font-weight:normal" x="1149.76" y="283.098">
        <tspan x="1149.76" y="283.098">Coupon</tspan>
        <tspan x="1149.76" y="299.098">851e3</tspan>
      </text>
    </g>
    <g>
      <rect style="fill: #ffffff; fill-opacity: 1; stroke-opacity: 1; stroke-width: 2; stroke: #000000" x="1114.26" y="320.217" width="71" height="54" rx="0" ry="0"/>
      <text font-size="12.8" style="fill: #000000; fill-opacity: 1; stroke: none;text-anchor:middle;font-family:sans-serif;font-style:normal;font-weight:normal" x="1149.76" y="343.098">
        <tspan x="1149.76" y="343.098">Coupon</tspan>
        <tspan x="1149.76" y="359.098">852e3</tspan>
      </text>
    </g>
    <g>
      <rect style="fill: #ffffff; fill-opacity: 1; stroke-opacity: 1; stroke-width: 2; stroke: #000000" x="810.142" y="320.217" width="71" height="54" rx="0" ry="0"/>
      <text font-size="12.8" style="fill: #000000; fill-opacity: 1; stroke: none;text-anchor:middle;font-family:sans-serif;font-style:normal;font-weight:normal" x="845.642" y="343.098">
        <tspan x="845.642" y="343.098">Coupon</tspan>
        <tspan x="845.642" y="359.098">87e4</tspan>
      </text>
    </g>
    <g>
      <rect style="fill: #ffffff; fill-opacity: 1; stroke-opacity: 1; stroke-width: 2; stroke: #000000" x="810.142" y="260.217" width="71" height="54" rx="0" ry="0"/>
      <text font-size="12.8" style="fill: #000000; fill-opacity: 1; stroke: none;text-anchor:middle;font-family:sans-serif;font-style:normal;font-weight:normal" x="845.642" y="283.098">
        <tspan x="845.642" y="283.098">Coupon</tspan>
        <tspan x="845.642" y="299.098">86e4</tspan>
      </text>
    </g>
    <g>
      <rect style="fill: #ffffff; fill-opacity: 1; stroke-opacity: 1; stroke-width: 2; stroke: #000000" x="810.142" y="380.217" width="71" height="54" rx="0" ry="0"/>
      <text font-size="12.8" style="fill: #000000; fill-opacity: 1; stroke: none;text-anchor:middle;font-family:sans-serif;font-style:normal;font-weight:normal" x="845.642" y="403.098">
        <tspan x="845.642" y="403.098">Coupon</tspan>
        <tspan x="845.642" y="419.098">88e4</tspan>
      </text>
    </g>
    <g>
      <rect style="fill: #ffffff; fill-opacity: 1; stroke-opacity: 1; stroke-width: 2; stroke: #000000" x="516.727" y="260.217" width="71" height="54" rx="0" ry="0"/>
      <text font-size="12.8" style="fill: #000000; fill-opacity: 1; stroke: none;text-anchor:middle;font-family:sans-serif;font-style:normal;font-weight:normal" x="552.227" y="283.098">
        <tspan x="552.227" y="283.098">Coupon</tspan>
        <tspan x="552.227" y="299.098">9e5</tspan>
      </text>
    </g>
    <g>
      <rect style="fill: #ffffff; fill-opacity: 1; stroke-opacity: 1; stroke-width: 2; stroke: #000000" x="516.727" y="320.217" width="71" height="54" rx="0" ry="0"/>
      <text font-size="12.8" style="fill: #000000; fill-opacity: 1; stroke: none;text-anchor:middle;font-family:sans-serif;font-style:normal;font-weight:normal" x="552.227" y="343.098">
        <tspan x="552.227" y="343.098">Coupon</tspan>
        <tspan x="552.227" y="359.098">11e5</tspan>
      </text>
    </g>
    <g>
      <rect style="fill: #ffffff; fill-opacity: 1; stroke-opacity: 1; stroke-width: 2; stroke: #000000" x="516.727" y="440.217" width="71" height="54" rx="0" ry="0"/>
      <text font-size="12.8" style="fill: #000000; fill-opacity: 1; stroke: none;text-anchor:middle;font-family:sans-serif;font-style:normal;font-weight:normal" x="552.227" y="463.098">
        <tspan x="552.227" y="463.098">Coupon</tspan>
        <tspan x="552.227" y="479.098">13e5</tspan>
      </text>
    </g>
    <g>
      <rect style="fill: #ffffff; fill-opacity: 1; stroke-opacity: 1; stroke-width: 2; stroke: #000000" x="228.07" y="260.217" width="71" height="54" rx="0" ry="0"/>
      <text font-size="12.8" style="fill: #000000; fill-opacity: 1; stroke: none;text-anchor:middle;font-family:sans-serif;font-style:normal;font-weight:normal" x="263.57" y="283.098">
        <tspan x="263.57" y="283.098">Coupon</tspan>
        <tspan x="263.57" y="299.098">1e6</tspan>
      </text>
    </g>
    <g>
      <rect style="fill: #ffffff; fill-opacity: 1; stroke-opacity: 1; stroke-width: 2; stroke: #000000" x="228.07" y="320.217" width="71" height="54" rx="0" ry="0"/>
      <text font-size="12.8" style="fill: #000000; fill-opacity: 1; stroke: none;text-anchor:middle;font-family:sans-serif;font-style:normal;font-weight:normal" x="263.57" y="343.098">
        <tspan x="263.57" y="343.098">Coupon</tspan>
        <tspan x="263.57" y="359.098">2e6</tspan>
      </text>
    </g>
  </g>
  <g id="content"/>
  <g id="New layer 1"/>
</svg>
