<svg style="height:300px;width:300px" version="1.1" viewBox="0 0 6528 6528" xmlns="http://www.w3.org/2000/svg" xmlns:xlink="http://www.w3.org/1999/xlink">
 <g transform="matrix(5.1746 0 0 5.1746 -67.272 1274.7)">
  <rect x="116.86" y="-95.88" width="1000.4" height="963.94" fill="#8dc351" stroke-dashoffset="7.35" stroke-linejoin="round" stroke-width="65.595"/>
  <g transform="matrix(.061012 0 0 .061012 -103.83 -229.35)" fill="#fff">
   <path d="m7751 13046c-6-17-62-222-127-456-195-713-262-951-266-956-3-2-398 103-879 234s-875 238-877 237c-3-3-112-1041-112-1071 0-17 8-23 33-28 75-14 558-147 627-172 101-38 181-113 204-193 28-95 21-155-43-390-33-119-139-504-236-856s-239-867-315-1145-193-703-260-945-142-514-166-605c-25-91-57-185-72-210-44-77-110-138-190-177-67-34-84-38-171-41-134-6-233 16-734 162-81 23-120 30-122 22-7-20-247-901-249-910 0-4 87-33 194-62 107-30 499-138 870-241 371-102 678-189 682-192s-81-323-188-711-192-710-190-715c2-6 28-17 57-24 30-8 222-61 428-117 206-57 376-103 377-101 1 1 88 315 193 697 106 382 194 696 196 698s137-35 302-83c164-48 318-92 343-100 35-10 44-17 42-31-2-11-87-320-188-689-101-368-184-674-184-680 0-9 858-250 865-243 2 2 91 322 198 711s196 710 199 712c2 3 42-2 89-10 416-74 899-94 1184-51 672 104 1078 440 1283 1061 196 592 97 1085-302 1499l-73 76h118c828 0 1344 393 1564 1190 130 470 135 910 15 1273-41 126-137 313-218 427-145 205-419 444-699 612-277 166-754 378-1083 483-30 10-58 20-62 24-4 3 71 290 166 636 96 347 185 671 198 721l25 91-426 117c-234 64-431 116-436 116-6 0-98-318-204-707-107-390-195-709-196-710-1-2-143 35-316 81s-329 87-346 91c-18 3-33 12-33 18 0 11 16 68 259 952 71 259 128 471 126 473-1 1-196 56-433 121l-431 118zm442-2762c928-243 1429-470 1733-785 93-98 132-151 179-252 54-113 70-186 69-317 0-211-79-419-214-563-317-339-883-384-1824-143-226 58-696 197-696 207 0 4 117 433 260 953s260 948 260 951c0 10 22 5 233-51zm-802-2789c657-172 1015-321 1295-540 97-76 161-145 225-243 60-91 87-161 107-277 19-113 7-234-39-369-102-305-310-473-660-532-82-13-140-16-298-11-227 6-400 32-681 103-171 42-609 170-618 179-4 4 126 484 431 1588 24 87 46 147 53 147 6 0 90-20 185-45z" fill="#fff"/>
  </g>
 </g>
 <rect x="3048.1" y="1705.9" width="3278.2" height="3036.9" rx="300" ry="300" fill="#ff2dc7" stroke-width="170.33"/>
 <path d="m732.15 4781.5v884.71-4845zm206.52 1138c-124.15 0-231.8-45.58-322.97-136.74-91.165-91.16-136.75-198.85-136.75-323.06v-4431.9c0-124.21 45.582-231.9 136.75-323.06 91.165-91.16 198.82-136.74 322.97-136.74h4430.9c124.3 0 232.01 45.58 323.12 136.74 91.165 91.16 136.75 198.85 136.75 323.06v1120.5h-253.35v-1120.5c0-60.232-19.291-109.73-57.873-148.49-38.789-38.701-88.339-58.052-148.65-58.052h-4430.9c-60.258 0-109.73 19.351-148.42 58.052-38.737 38.758-58.106 88.253-58.106 148.49v4431.9c0 60.232 19.369 109.73 58.106 148.49 38.685 38.701 88.157 58.052 148.42 58.052h4430.9c60.31 0 109.86-19.351 148.65-58.052 38.582-38.758 57.873-88.253 57.873-148.49v-1118.6h253.35v1118.6c0 124.21-45.582 231.9-136.75 323.06-91.113 91.16-198.82 136.74-323.12 136.74zm2825.4-1391.2c-139.44 0-259.96-49.747-361.55-149.24-101.54-99.436-152.3-219.9-152.3-361.39v-1543.6c0-142.33 50.561-263.39 151.68-363.16 101.07-99.773 220.86-149.66 359.37-149.66h1891.8c144.63 0 267.69 49.721 369.17 149.16 101.43 99.436 152.15 219.9 152.15 361.39v1543.6c0 142.33-50.509 263.39-151.53 363.16-100.97 99.825-223.32 149.74-367.07 149.74zm1950.5-253.34c55.902 0 104.34-19.35 145.3-58.052 40.812-38.701 61.218-88.17 61.218-148.41v-1647.5c0-55.928-20.406-104.31-61.218-145.13-40.967-40.884-89.402-61.326-145.3-61.326h-2004.5c-55.954 0-104.39 20.442-145.3 61.326-40.812 40.827-61.217 89.205-61.217 145.13v1647.5c0 60.237 20.406 109.71 61.217 148.41 40.915 38.701 89.35 58.052 145.3 58.052z" stroke-width="8.389"/>
 <path d="m4240.4 2459.2h940.93v313.64h-627.29v313.64h313.64v313.64h-313.64v627.29h-313.64z" fill="#fff" stroke-width="156.82"/>
</svg>
