<?xml version="1.0" encoding="UTF-8" standalone="no"?>
<!DOCTYPE svg PUBLIC "-//W3C//DTD SVG 1.0//EN" "http://www.w3.org/TR/2001/PR-SVG-20010719/DTD/svg10.dtd">
<svg width="62cm" height="30cm" viewBox="-1 -1 1222 582" xmlns="http://www.w3.org/2000/svg" xmlns:xlink="http://www.w3.org/1999/xlink">
  <g id="Background">
    <g>
      <rect style="fill: #969696; fill-opacity: 1; stroke-opacity: 1; stroke-width: 2; stroke: #000000" x="0" y="0" width="1220" height="580" rx="0" ry="0"/>
      <text font-size="12.7998" style="fill: #000000; fill-opacity: 1; stroke: none;text-anchor:middle;font-family:sans-serif;font-style:normal;font-weight:normal" x="610" y="293.881">
        <tspan x="610" y="293.881"></tspan>
      </text>
    </g>
    <g>
      <rect style="fill: #ffffff; fill-opacity: 1; stroke-opacity: 1; stroke-width: 2; stroke: #000000" x="20" y="20" width="140" height="80" rx="0" ry="0"/>
      <text font-size="12.7998" style="fill: #000000; fill-opacity: 1; stroke: none;text-anchor:middle;font-family:sans-serif;font-style:normal;font-weight:normal" x="90" y="63.8811">
        <tspan x="90" y="63.8811">Genesis TX</tspan>
      </text>
    </g>
    <g>
      <rect style="fill: #e6d7d7; fill-opacity: 1; stroke-opacity: 1; stroke-width: 2; stroke: #000000" x="20" y="140" width="140" height="80" rx="0" ry="0"/>
      <text font-size="12.7998" style="fill: #000000; fill-opacity: 1; stroke: none;text-anchor:middle;font-family:sans-serif;font-style:normal;font-weight:normal" x="90" y="175.881">
        <tspan x="90" y="175.881">Battery </tspan>
        <tspan x="90" y="191.881">E3 Gantry Mint</tspan>
      </text>
    </g>
    <g>
      <rect style="fill: #e6d7d7; fill-opacity: 1; stroke-opacity: 1; stroke-width: 2; stroke: #000000" x="320" y="140" width="140" height="80" rx="0" ry="0"/>
      <text font-size="12.7998" style="fill: #000000; fill-opacity: 1; stroke: none;text-anchor:middle;font-family:sans-serif;font-style:normal;font-weight:normal" x="390" y="175.881">
        <tspan x="390" y="175.881">Battery </tspan>
        <tspan x="390" y="191.881">E4 Gantry Mint</tspan>
      </text>
    </g>
    <g>
      <rect style="fill: #e6d7d7; fill-opacity: 1; stroke-opacity: 1; stroke-width: 2; stroke: #000000" x="620" y="140" width="140" height="80" rx="0" ry="0"/>
      <text font-size="12.7998" style="fill: #000000; fill-opacity: 1; stroke: none;text-anchor:middle;font-family:sans-serif;font-style:normal;font-weight:normal" x="690" y="175.881">
        <tspan x="690" y="175.881">Battery</tspan>
        <tspan x="690" y="191.881">E5 Gantry Mint</tspan>
      </text>
    </g>
    <g>
      <rect style="fill: #e6d7d7; fill-opacity: 1; stroke-opacity: 1; stroke-width: 2; stroke: #000000" x="920" y="140" width="140" height="80" rx="0" ry="0"/>
      <text font-size="12.7998" style="fill: #000000; fill-opacity: 1; stroke: none;text-anchor:middle;font-family:sans-serif;font-style:normal;font-weight:normal" x="990" y="175.881">
        <tspan x="990" y="175.881">Battery </tspan>
        <tspan x="990" y="191.881">E6 Gantry Mint</tspan>
      </text>
    </g>
    <g>
      <rect style="fill: #e6d7d7; fill-opacity: 1; stroke-opacity: 1; stroke-width: 2; stroke: #000000" x="1080" y="60" width="120" height="54" rx="0" ry="0"/>
      <text font-size="12.7998" style="fill: #000000; fill-opacity: 1; stroke: none;text-anchor:middle;font-family:sans-serif;font-style:normal;font-weight:normal" x="1140" y="82.8811">
        <tspan x="1140" y="82.8811">Battery</tspan>
        <tspan x="1140" y="98.8811">Baton Burn</tspan>
      </text>
    </g>
    <g>
      <line style="fill: none; stroke-opacity: 1; stroke-width: 2; stroke: #000000" x1="160" y1="180" x2="309.273" y2="180"/>
      <polygon style="fill: #000000; fill-opacity: 1; stroke-opacity: 1; stroke-width: 2; stroke: #000000" fill-rule="evenodd" points="316.773,180 306.773,185 309.273,180 306.773,175 "/>
    </g>
    <g>
      <line style="fill: none; stroke-opacity: 1; stroke-width: 2; stroke: #000000" x1="760" y1="180" x2="909.273" y2="180"/>
      <polygon style="fill: #000000; fill-opacity: 1; stroke-opacity: 1; stroke-width: 2; stroke: #000000" fill-rule="evenodd" points="916.773,180 906.773,185 909.273,180 906.773,175 "/>
    </g>
    <g>
      <line style="fill: none; stroke-opacity: 1; stroke-width: 2; stroke: #000000" x1="1060" y1="180" x2="1109.57" y2="122.376"/>
      <polygon style="fill: #000000; fill-opacity: 1; stroke-opacity: 1; stroke-width: 2; stroke: #000000" fill-rule="evenodd" points="1114.46,116.691 1111.73,127.532 1109.57,122.376 1104.15,121.011 "/>
    </g>
    <g>
      <line style="fill: none; stroke-opacity: 1; stroke-width: 2; stroke: #000000" x1="460.99" y1="180" x2="609.274" y2="180"/>
      <polygon style="fill: #000000; fill-opacity: 1; stroke-opacity: 1; stroke-width: 2; stroke: #000000" fill-rule="evenodd" points="616.774,180 606.774,185 609.274,180 606.774,175 "/>
    </g>
    <g>
      <line style="fill: none; stroke-opacity: 1; stroke-width: 2; stroke: #000000" x1="90" y1="100.898" x2="90" y2="129.365"/>
      <polygon style="fill: #000000; fill-opacity: 1; stroke-opacity: 1; stroke-width: 2; stroke: #000000" fill-rule="evenodd" points="90,136.865 85,126.865 90,129.365 95,126.865 "/>
    </g>
    <g>
      <rect style="fill: #dcdcea; fill-opacity: 1; stroke-opacity: 1; stroke-width: 2; stroke: #000000" x="20" y="480" width="85.95" height="60" rx="0" ry="0"/>
      <text font-size="12.7998" style="fill: #000000; fill-opacity: 1; stroke: none;text-anchor:middle;font-family:sans-serif;font-style:normal;font-weight:normal" x="62.975" y="505.881">
        <tspan x="62.975" y="505.881">Gantry E3</tspan>
        <tspan x="62.975" y="521.881">Baton</tspan>
      </text>
    </g>
    <g>
      <rect style="fill: #dcdcea; fill-opacity: 1; stroke-opacity: 1; stroke-width: 2; stroke: #000000" x="320" y="480" width="85.95" height="60" rx="0" ry="0"/>
      <text font-size="12.7998" style="fill: #000000; fill-opacity: 1; stroke: none;text-anchor:middle;font-family:sans-serif;font-style:normal;font-weight:normal" x="362.975" y="505.881">
        <tspan x="362.975" y="505.881">Gantry E4</tspan>
        <tspan x="362.975" y="521.881">Baton</tspan>
      </text>
    </g>
    <g>
      <rect style="fill: #dcdcea; fill-opacity: 1; stroke-opacity: 1; stroke-width: 2; stroke: #000000" x="620" y="480" width="85.95" height="60" rx="0" ry="0"/>
      <text font-size="12.7998" style="fill: #000000; fill-opacity: 1; stroke: none;text-anchor:middle;font-family:sans-serif;font-style:normal;font-weight:normal" x="662.975" y="505.881">
        <tspan x="662.975" y="505.881">Gantry E5</tspan>
        <tspan x="662.975" y="521.881">Baton</tspan>
      </text>
    </g>
    <g>
      <rect style="fill: #dcdcea; fill-opacity: 1; stroke-opacity: 1; stroke-width: 2; stroke: #000000" x="920" y="380" width="85.95" height="60" rx="0" ry="0"/>
      <text font-size="12.7998" style="fill: #000000; fill-opacity: 1; stroke: none;text-anchor:middle;font-family:sans-serif;font-style:normal;font-weight:normal" x="962.975" y="405.881">
        <tspan x="962.975" y="405.881">Gantry E6</tspan>
        <tspan x="962.975" y="421.881">Baton</tspan>
      </text>
    </g>
    <g>
      <rect style="fill: #eaeaea; fill-opacity: 1; stroke-opacity: 1; stroke-width: 2; stroke: #000000" x="40" y="240" width="160" height="38" rx="0" ry="0"/>
      <text font-size="12.7998" style="fill: #000000; fill-opacity: 1; stroke: none;text-anchor:middle;font-family:sans-serif;font-style:normal;font-weight:normal" x="120" y="262.881">
        <tspan x="120" y="262.881">Vault FBCH-851 000</tspan>
      </text>
    </g>
    <g>
      <rect style="fill: #eaeaea; fill-opacity: 1; stroke-opacity: 1; stroke-width: 2; stroke: #000000" x="40" y="300" width="160" height="38" rx="0" ry="0"/>
      <text font-size="12.7998" style="fill: #000000; fill-opacity: 1; stroke: none;text-anchor:middle;font-family:sans-serif;font-style:normal;font-weight:normal" x="120" y="322.881">
        <tspan x="120" y="322.881">Vault FBCH-852 000</tspan>
      </text>
    </g>
    <g>
      <rect style="fill: #eaeaea; fill-opacity: 1; stroke-opacity: 1; stroke-width: 2; stroke: #000000" x="40" y="360" width="160" height="38" rx="0" ry="0"/>
      <text font-size="12.7998" style="fill: #000000; fill-opacity: 1; stroke: none;text-anchor:middle;font-family:sans-serif;font-style:normal;font-weight:normal" x="120" y="382.881">
        <tspan x="120" y="382.881">Vault FBCH-853 000</tspan>
      </text>
    </g>
    <g>
      <rect style="fill: #eaeaea; fill-opacity: 1; stroke-opacity: 1; stroke-width: 2; stroke: #000000" x="40" y="420" width="160" height="38" rx="0" ry="0"/>
      <text font-size="12.7998" style="fill: #000000; fill-opacity: 1; stroke: none;text-anchor:middle;font-family:sans-serif;font-style:normal;font-weight:normal" x="120" y="442.881">
        <tspan x="120" y="442.881">Vault FBCH-854 000</tspan>
      </text>
    </g>
    <g>
      <rect style="fill: #eaeaea; fill-opacity: 1; stroke-opacity: 1; stroke-width: 2; stroke: #000000" x="340" y="240" width="160" height="38" rx="0" ry="0"/>
      <text font-size="12.7998" style="fill: #000000; fill-opacity: 1; stroke: none;text-anchor:middle;font-family:sans-serif;font-style:normal;font-weight:normal" x="420" y="262.881">
        <tspan x="420" y="262.881">Vault FBCH-860 000</tspan>
      </text>
    </g>
    <g>
      <rect style="fill: #eaeaea; fill-opacity: 1; stroke-opacity: 1; stroke-width: 2; stroke: #000000" x="340" y="300" width="160" height="38" rx="0" ry="0"/>
      <text font-size="12.7998" style="fill: #000000; fill-opacity: 1; stroke: none;text-anchor:middle;font-family:sans-serif;font-style:normal;font-weight:normal" x="420" y="322.881">
        <tspan x="420" y="322.881">Vault FBCH-870 000</tspan>
      </text>
    </g>
    <g>
      <rect style="fill: #eaeaea; fill-opacity: 1; stroke-opacity: 1; stroke-width: 2; stroke: #000000" x="340" y="360" width="160" height="38" rx="0" ry="0"/>
      <text font-size="12.7998" style="fill: #000000; fill-opacity: 1; stroke: none;text-anchor:middle;font-family:sans-serif;font-style:normal;font-weight:normal" x="420" y="382.881">
        <tspan x="420" y="382.881">Vault FBCH-880 000</tspan>
      </text>
    </g>
    <g>
      <rect style="fill: #eaeaea; fill-opacity: 1; stroke-opacity: 1; stroke-width: 2; stroke: #000000" x="340" y="420" width="160" height="38" rx="0" ry="0"/>
      <text font-size="12.7998" style="fill: #000000; fill-opacity: 1; stroke: none;text-anchor:middle;font-family:sans-serif;font-style:normal;font-weight:normal" x="420" y="442.881">
        <tspan x="420" y="442.881">Vault FBCH-890 000</tspan>
      </text>
    </g>
    <g>
      <rect style="fill: #eaeaea; fill-opacity: 1; stroke-opacity: 1; stroke-width: 2; stroke: #000000" x="640" y="240" width="160" height="38" rx="0" ry="0"/>
      <text font-size="12.7998" style="fill: #000000; fill-opacity: 1; stroke: none;text-anchor:middle;font-family:sans-serif;font-style:normal;font-weight:normal" x="720" y="262.881">
        <tspan x="720" y="262.881">Vault FBCH-900 000</tspan>
      </text>
    </g>
    <g>
      <rect style="fill: #eaeaea; fill-opacity: 1; stroke-opacity: 1; stroke-width: 2; stroke: #000000" x="638.775" y="300" width="162.45" height="38" rx="0" ry="0"/>
      <text font-size="12.7998" style="fill: #000000; fill-opacity: 1; stroke: none;text-anchor:middle;font-family:sans-serif;font-style:normal;font-weight:normal" x="720" y="322.881">
        <tspan x="720" y="322.881">Vault FBCH-1 100 000</tspan>
      </text>
    </g>
    <g>
      <rect style="fill: #eaeaea; fill-opacity: 1; stroke-opacity: 1; stroke-width: 2; stroke: #000000" x="634.7" y="360" width="170.6" height="38" rx="0" ry="0"/>
      <text font-size="12.7998" style="fill: #000000; fill-opacity: 1; stroke: none;text-anchor:middle;font-family:sans-serif;font-style:normal;font-weight:normal" x="720" y="382.881">
        <tspan x="720" y="382.881">Vault FBCH-1 200 000</tspan>
      </text>
    </g>
    <g>
      <rect style="fill: #eaeaea; fill-opacity: 1; stroke-opacity: 1; stroke-width: 2; stroke: #000000" x="638.775" y="420" width="162.45" height="38" rx="0" ry="0"/>
      <text font-size="12.7998" style="fill: #000000; fill-opacity: 1; stroke: none;text-anchor:middle;font-family:sans-serif;font-style:normal;font-weight:normal" x="720" y="442.881">
        <tspan x="720" y="442.881">Vault FBCH-1 300 000</tspan>
      </text>
    </g>
    <g>
      <line style="fill: none; stroke-opacity: 1; stroke-width: 2; stroke: #000000" x1="20" y1="220" x2="20" y2="470.264"/>
      <polygon style="fill: #000000; fill-opacity: 1; stroke-opacity: 1; stroke-width: 2; stroke: #000000" fill-rule="evenodd" points="20,477.764 15,467.764 20,470.264 25,467.764 "/>
    </g>
    <g>
      <rect style="fill: #eaeaea; fill-opacity: 1; stroke-opacity: 1; stroke-width: 2; stroke: #000000" x="938.775" y="240" width="162.45" height="38" rx="0" ry="0"/>
      <text font-size="12.7998" style="fill: #000000; fill-opacity: 1; stroke: none;text-anchor:middle;font-family:sans-serif;font-style:normal;font-weight:normal" x="1020" y="262.881">
        <tspan x="1020" y="262.881">Vault FBCH-1 000 000</tspan>
      </text>
    </g>
    <g>
      <rect style="fill: #eaeaea; fill-opacity: 1; stroke-opacity: 1; stroke-width: 2; stroke: #000000" x="938.775" y="300" width="162.45" height="38" rx="0" ry="0"/>
      <text font-size="12.7998" style="fill: #000000; fill-opacity: 1; stroke: none;text-anchor:middle;font-family:sans-serif;font-style:normal;font-weight:normal" x="1020" y="322.881">
        <tspan x="1020" y="322.881">Vault FBCH-2 000 000</tspan>
      </text>
    </g>
    <g>
      <line style="fill: none; stroke-opacity: 1; stroke-width: 2; stroke: #000000" x1="320" y1="220" x2="320" y2="470.264"/>
      <polygon style="fill: #000000; fill-opacity: 1; stroke-opacity: 1; stroke-width: 2; stroke: #000000" fill-rule="evenodd" points="320,477.764 315,467.764 320,470.264 325,467.764 "/>
    </g>
    <g>
      <line style="fill: none; stroke-opacity: 1; stroke-width: 2; stroke: #000000" x1="620" y1="220" x2="620" y2="470.264"/>
      <polygon style="fill: #000000; fill-opacity: 1; stroke-opacity: 1; stroke-width: 2; stroke: #000000" fill-rule="evenodd" points="620,477.764 615,467.764 620,470.264 625,467.764 "/>
    </g>
    <g>
      <line style="fill: none; stroke-opacity: 1; stroke-width: 2; stroke: #000000" x1="920" y1="220" x2="920" y2="370.264"/>
      <polygon style="fill: #000000; fill-opacity: 1; stroke-opacity: 1; stroke-width: 2; stroke: #000000" fill-rule="evenodd" points="920,377.764 915,367.764 920,370.264 925,367.764 "/>
    </g>
    <g>
      <line style="fill: none; stroke-opacity: 1; stroke-width: 2; stroke: #000000" x1="20" y1="260" x2="29.283" y2="259.907"/>
      <polygon style="fill: #000000; fill-opacity: 1; stroke-opacity: 1; stroke-width: 2; stroke: #000000" fill-rule="evenodd" points="36.7826,259.832 26.8331,264.932 29.283,259.907 26.7331,254.932 "/>
    </g>
    <g>
      <line style="fill: none; stroke-opacity: 1; stroke-width: 2; stroke: #000000" x1="20" y1="320" x2="29.283" y2="319.907"/>
      <polygon style="fill: #000000; fill-opacity: 1; stroke-opacity: 1; stroke-width: 2; stroke: #000000" fill-rule="evenodd" points="36.7826,319.832 26.8331,324.932 29.283,319.907 26.7331,314.932 "/>
    </g>
    <g>
      <line style="fill: none; stroke-opacity: 1; stroke-width: 2; stroke: #000000" x1="20" y1="380" x2="29.283" y2="379.907"/>
      <polygon style="fill: #000000; fill-opacity: 1; stroke-opacity: 1; stroke-width: 2; stroke: #000000" fill-rule="evenodd" points="36.7826,379.832 26.8331,384.932 29.283,379.907 26.7331,374.932 "/>
    </g>
    <g>
      <line style="fill: none; stroke-opacity: 1; stroke-width: 2; stroke: #000000" x1="20" y1="440" x2="29.283" y2="439.907"/>
      <polygon style="fill: #000000; fill-opacity: 1; stroke-opacity: 1; stroke-width: 2; stroke: #000000" fill-rule="evenodd" points="36.7826,439.832 26.8331,444.932 29.283,439.907 26.7331,434.932 "/>
    </g>
    <g>
      <line style="fill: none; stroke-opacity: 1; stroke-width: 2; stroke: #000000" x1="320" y1="440" x2="329.283" y2="439.907"/>
      <polygon style="fill: #000000; fill-opacity: 1; stroke-opacity: 1; stroke-width: 2; stroke: #000000" fill-rule="evenodd" points="336.783,439.832 326.833,444.932 329.283,439.907 326.733,434.932 "/>
    </g>
    <g>
      <line style="fill: none; stroke-opacity: 1; stroke-width: 2; stroke: #000000" x1="320" y1="380" x2="329.283" y2="379.907"/>
      <polygon style="fill: #000000; fill-opacity: 1; stroke-opacity: 1; stroke-width: 2; stroke: #000000" fill-rule="evenodd" points="336.783,379.832 326.833,384.932 329.283,379.907 326.733,374.932 "/>
    </g>
    <g>
      <line style="fill: none; stroke-opacity: 1; stroke-width: 2; stroke: #000000" x1="320" y1="320" x2="329.283" y2="319.907"/>
      <polygon style="fill: #000000; fill-opacity: 1; stroke-opacity: 1; stroke-width: 2; stroke: #000000" fill-rule="evenodd" points="336.783,319.832 326.833,324.932 329.283,319.907 326.733,314.932 "/>
    </g>
    <g>
      <line style="fill: none; stroke-opacity: 1; stroke-width: 2; stroke: #000000" x1="320" y1="260" x2="329.283" y2="259.907"/>
      <polygon style="fill: #000000; fill-opacity: 1; stroke-opacity: 1; stroke-width: 2; stroke: #000000" fill-rule="evenodd" points="336.783,259.832 326.833,264.932 329.283,259.907 326.733,254.932 "/>
    </g>
    <g>
      <line style="fill: none; stroke-opacity: 1; stroke-width: 2; stroke: #000000" x1="620" y1="260" x2="629.283" y2="259.907"/>
      <polygon style="fill: #000000; fill-opacity: 1; stroke-opacity: 1; stroke-width: 2; stroke: #000000" fill-rule="evenodd" points="636.783,259.832 626.833,264.932 629.283,259.907 626.733,254.932 "/>
    </g>
    <g>
      <line style="fill: none; stroke-opacity: 1; stroke-width: 2; stroke: #000000" x1="620" y1="320" x2="628.136" y2="319.919"/>
      <polygon style="fill: #000000; fill-opacity: 1; stroke-opacity: 1; stroke-width: 2; stroke: #000000" fill-rule="evenodd" points="635.635,319.844 625.686,324.943 628.136,319.919 625.586,314.944 "/>
    </g>
    <g>
      <line style="fill: none; stroke-opacity: 1; stroke-width: 2; stroke: #000000" x1="620" y1="380" x2="623.973" y2="379.96"/>
      <polygon style="fill: #000000; fill-opacity: 1; stroke-opacity: 1; stroke-width: 2; stroke: #000000" fill-rule="evenodd" points="631.473,379.885 621.523,384.985 623.973,379.96 621.423,374.986 "/>
    </g>
    <g>
      <line style="fill: none; stroke-opacity: 1; stroke-width: 2; stroke: #000000" x1="620" y1="440" x2="628.136" y2="439.919"/>
      <polygon style="fill: #000000; fill-opacity: 1; stroke-opacity: 1; stroke-width: 2; stroke: #000000" fill-rule="evenodd" points="635.635,439.844 625.686,444.943 628.136,439.919 625.586,434.944 "/>
    </g>
    <g>
      <line style="fill: none; stroke-opacity: 1; stroke-width: 2; stroke: #000000" x1="920" y1="260" x2="928.136" y2="259.919"/>
      <polygon style="fill: #000000; fill-opacity: 1; stroke-opacity: 1; stroke-width: 2; stroke: #000000" fill-rule="evenodd" points="935.635,259.844 925.686,264.943 928.136,259.919 925.586,254.944 "/>
    </g>
    <g>
      <line style="fill: none; stroke-opacity: 1; stroke-width: 2; stroke: #000000" x1="920" y1="320" x2="928.136" y2="319.919"/>
      <polygon style="fill: #000000; fill-opacity: 1; stroke-opacity: 1; stroke-width: 2; stroke: #000000" fill-rule="evenodd" points="935.635,319.844 925.686,324.943 928.136,319.919 925.586,314.944 "/>
    </g>
    <g>
      <rect style="fill: #ffffff; fill-opacity: 1; stroke-opacity: 1; stroke-width: 2; stroke: #000000" x="220" y="240" width="70.95" height="54" rx="0" ry="0"/>
      <text font-size="12.7998" style="fill: #000000; fill-opacity: 1; stroke: none;text-anchor:middle;font-family:sans-serif;font-style:normal;font-weight:normal" x="255.475" y="262.881">
        <tspan x="255.475" y="262.881">Coupon</tspan>
        <tspan x="255.475" y="278.881">851e3</tspan>
      </text>
    </g>
    <g>
      <rect style="fill: #ffffff; fill-opacity: 1; stroke-opacity: 1; stroke-width: 2; stroke: #000000" x="220" y="300" width="70.95" height="54" rx="0" ry="0"/>
      <text font-size="12.7998" style="fill: #000000; fill-opacity: 1; stroke: none;text-anchor:middle;font-family:sans-serif;font-style:normal;font-weight:normal" x="255.475" y="322.881">
        <tspan x="255.475" y="322.881">Coupon</tspan>
        <tspan x="255.475" y="338.881">852e3</tspan>
      </text>
    </g>
    <g>
      <rect style="fill: #ffffff; fill-opacity: 1; stroke-opacity: 1; stroke-width: 2; stroke: #000000" x="520" y="300" width="70.95" height="54" rx="0" ry="0"/>
      <text font-size="12.7998" style="fill: #000000; fill-opacity: 1; stroke: none;text-anchor:middle;font-family:sans-serif;font-style:normal;font-weight:normal" x="555.475" y="322.881">
        <tspan x="555.475" y="322.881">Coupon</tspan>
        <tspan x="555.475" y="338.881">87e4</tspan>
      </text>
    </g>
    <g>
      <rect style="fill: #ffffff; fill-opacity: 1; stroke-opacity: 1; stroke-width: 2; stroke: #000000" x="520" y="240" width="70.95" height="54" rx="0" ry="0"/>
      <text font-size="12.7998" style="fill: #000000; fill-opacity: 1; stroke: none;text-anchor:middle;font-family:sans-serif;font-style:normal;font-weight:normal" x="555.475" y="262.881">
        <tspan x="555.475" y="262.881">Coupon</tspan>
        <tspan x="555.475" y="278.881">86e4</tspan>
      </text>
    </g>
    <g>
      <rect style="fill: #ffffff; fill-opacity: 1; stroke-opacity: 1; stroke-width: 2; stroke: #000000" x="520" y="360" width="70.95" height="54" rx="0" ry="0"/>
      <text font-size="12.7998" style="fill: #000000; fill-opacity: 1; stroke: none;text-anchor:middle;font-family:sans-serif;font-style:normal;font-weight:normal" x="555.475" y="382.881">
        <tspan x="555.475" y="382.881">Coupon</tspan>
        <tspan x="555.475" y="398.881">88e4</tspan>
      </text>
    </g>
    <g>
      <rect style="fill: #ffffff; fill-opacity: 1; stroke-opacity: 1; stroke-width: 2; stroke: #000000" x="820" y="240" width="70.95" height="54" rx="0" ry="0"/>
      <text font-size="12.7998" style="fill: #000000; fill-opacity: 1; stroke: none;text-anchor:middle;font-family:sans-serif;font-style:normal;font-weight:normal" x="855.475" y="262.881">
        <tspan x="855.475" y="262.881">Coupon</tspan>
        <tspan x="855.475" y="278.881">9e5</tspan>
      </text>
    </g>
    <g>
      <rect style="fill: #ffffff; fill-opacity: 1; stroke-opacity: 1; stroke-width: 2; stroke: #000000" x="820" y="300" width="70.95" height="54" rx="0" ry="0"/>
      <text font-size="12.7998" style="fill: #000000; fill-opacity: 1; stroke: none;text-anchor:middle;font-family:sans-serif;font-style:normal;font-weight:normal" x="855.475" y="322.881">
        <tspan x="855.475" y="322.881">Coupon</tspan>
        <tspan x="855.475" y="338.881">11e5</tspan>
      </text>
    </g>
    <g>
      <rect style="fill: #ffffff; fill-opacity: 1; stroke-opacity: 1; stroke-width: 2; stroke: #000000" x="820" y="420" width="70.95" height="54" rx="0" ry="0"/>
      <text font-size="12.7998" style="fill: #000000; fill-opacity: 1; stroke: none;text-anchor:middle;font-family:sans-serif;font-style:normal;font-weight:normal" x="855.475" y="442.881">
        <tspan x="855.475" y="442.881">Coupon</tspan>
        <tspan x="855.475" y="458.881">13e5</tspan>
      </text>
    </g>
    <g>
      <rect style="fill: #ffffff; fill-opacity: 1; stroke-opacity: 1; stroke-width: 2; stroke: #000000" x="1120" y="240" width="70.95" height="54" rx="0" ry="0"/>
      <text font-size="12.7998" style="fill: #000000; fill-opacity: 1; stroke: none;text-anchor:middle;font-family:sans-serif;font-style:normal;font-weight:normal" x="1155.47" y="262.881">
        <tspan x="1155.47" y="262.881">Coupon</tspan>
        <tspan x="1155.47" y="278.881">1e6</tspan>
      </text>
    </g>
    <g>
      <rect style="fill: #ffffff; fill-opacity: 1; stroke-opacity: 1; stroke-width: 2; stroke: #000000" x="1120" y="300" width="70.95" height="54" rx="0" ry="0"/>
      <text font-size="12.7998" style="fill: #000000; fill-opacity: 1; stroke: none;text-anchor:middle;font-family:sans-serif;font-style:normal;font-weight:normal" x="1155.47" y="322.881">
        <tspan x="1155.47" y="322.881">Coupon</tspan>
        <tspan x="1155.47" y="338.881">2e6</tspan>
      </text>
    </g>
  </g>
  <g id="content"/>
  <g id="New layer 1"/>
</svg>
